<mxfile host="app.diagrams.net" modified="2021-09-21T12:06:05.132Z" agent="5.0 (Windows NT 10.0; Win64; x64) AppleWebKit/537.36 (KHTML, like Gecko) Chrome/93.0.4577.82 Safari/537.36" etag="MYcKNC-yxqe9BmJ5tMOK" version="15.2.9" type="github">
  <diagram id="hH-_rpgufsO2_H_LGGQl" name="Page-1">
    <mxGraphModel dx="2580" dy="2065" grid="1" gridSize="10" guides="1" tooltips="1" connect="1" arrows="1" fold="1" page="1" pageScale="1" pageWidth="850" pageHeight="1100" math="0" shadow="0">
      <root>
        <mxCell id="0" />
        <mxCell id="1" parent="0" />
        <mxCell id="tfue6uO5ZcUPL1V4P8Y0-1" value="Shopping Mall" style="rounded=0;whiteSpace=wrap;html=1;" vertex="1" parent="1">
          <mxGeometry x="140" y="230" width="120" height="40" as="geometry" />
        </mxCell>
        <mxCell id="tfue6uO5ZcUPL1V4P8Y0-2" value="Address" style="ellipse;whiteSpace=wrap;html=1;" vertex="1" parent="1">
          <mxGeometry x="120" y="120" width="120" height="50" as="geometry" />
        </mxCell>
        <mxCell id="tfue6uO5ZcUPL1V4P8Y0-3" value="Name" style="ellipse;whiteSpace=wrap;html=1;" vertex="1" parent="1">
          <mxGeometry x="-10" y="150" width="120" height="50" as="geometry" />
        </mxCell>
        <mxCell id="tfue6uO5ZcUPL1V4P8Y0-5" value="Contact No" style="ellipse;whiteSpace=wrap;html=1;" vertex="1" parent="1">
          <mxGeometry x="-50" y="225" width="120" height="50" as="geometry" />
        </mxCell>
        <mxCell id="tfue6uO5ZcUPL1V4P8Y0-6" value="Email ID" style="ellipse;whiteSpace=wrap;html=1;" vertex="1" parent="1">
          <mxGeometry y="300" width="120" height="50" as="geometry" />
        </mxCell>
        <mxCell id="tfue6uO5ZcUPL1V4P8Y0-7" value="Bank" style="ellipse;whiteSpace=wrap;html=1;" vertex="1" parent="1">
          <mxGeometry x="140" y="320" width="120" height="50" as="geometry" />
        </mxCell>
        <mxCell id="tfue6uO5ZcUPL1V4P8Y0-8" value="A/C No" style="ellipse;whiteSpace=wrap;html=1;" vertex="1" parent="1">
          <mxGeometry x="-50" y="405" width="120" height="50" as="geometry" />
        </mxCell>
        <mxCell id="tfue6uO5ZcUPL1V4P8Y0-9" value="Bank Name" style="ellipse;whiteSpace=wrap;html=1;" vertex="1" parent="1">
          <mxGeometry x="70" y="410" width="120" height="50" as="geometry" />
        </mxCell>
        <mxCell id="tfue6uO5ZcUPL1V4P8Y0-10" value="Branch" style="ellipse;whiteSpace=wrap;html=1;" vertex="1" parent="1">
          <mxGeometry x="190" y="405" width="120" height="50" as="geometry" />
        </mxCell>
        <mxCell id="tfue6uO5ZcUPL1V4P8Y0-11" value="" style="endArrow=none;html=1;entryX=0.5;entryY=1;entryDx=0;entryDy=0;exitX=0.5;exitY=0;exitDx=0;exitDy=0;" edge="1" parent="1" source="tfue6uO5ZcUPL1V4P8Y0-1" target="tfue6uO5ZcUPL1V4P8Y0-2">
          <mxGeometry width="50" height="50" relative="1" as="geometry">
            <mxPoint x="400" y="320" as="sourcePoint" />
            <mxPoint x="450" y="270" as="targetPoint" />
          </mxGeometry>
        </mxCell>
        <mxCell id="tfue6uO5ZcUPL1V4P8Y0-12" value="" style="endArrow=none;html=1;exitX=1;exitY=1;exitDx=0;exitDy=0;" edge="1" parent="1" source="tfue6uO5ZcUPL1V4P8Y0-3">
          <mxGeometry width="50" height="50" relative="1" as="geometry">
            <mxPoint x="400" y="320" as="sourcePoint" />
            <mxPoint x="170" y="230" as="targetPoint" />
          </mxGeometry>
        </mxCell>
        <mxCell id="tfue6uO5ZcUPL1V4P8Y0-13" value="" style="endArrow=none;html=1;exitX=1;exitY=0.5;exitDx=0;exitDy=0;entryX=0;entryY=0.5;entryDx=0;entryDy=0;" edge="1" parent="1" source="tfue6uO5ZcUPL1V4P8Y0-5" target="tfue6uO5ZcUPL1V4P8Y0-1">
          <mxGeometry width="50" height="50" relative="1" as="geometry">
            <mxPoint x="90" y="260" as="sourcePoint" />
            <mxPoint x="167.57359312880703" y="297.3223304703363" as="targetPoint" />
          </mxGeometry>
        </mxCell>
        <mxCell id="tfue6uO5ZcUPL1V4P8Y0-14" value="" style="endArrow=none;html=1;exitX=1;exitY=0;exitDx=0;exitDy=0;entryX=0.5;entryY=1;entryDx=0;entryDy=0;" edge="1" parent="1" source="tfue6uO5ZcUPL1V4P8Y0-6" target="tfue6uO5ZcUPL1V4P8Y0-1">
          <mxGeometry width="50" height="50" relative="1" as="geometry">
            <mxPoint x="130" y="280" as="sourcePoint" />
            <mxPoint x="207.57359312880703" y="317.3223304703363" as="targetPoint" />
          </mxGeometry>
        </mxCell>
        <mxCell id="tfue6uO5ZcUPL1V4P8Y0-15" value="" style="endArrow=none;html=1;exitX=0.75;exitY=1;exitDx=0;exitDy=0;entryX=0.5;entryY=0;entryDx=0;entryDy=0;" edge="1" parent="1" source="tfue6uO5ZcUPL1V4P8Y0-1" target="tfue6uO5ZcUPL1V4P8Y0-7">
          <mxGeometry width="50" height="50" relative="1" as="geometry">
            <mxPoint x="270" y="300" as="sourcePoint" />
            <mxPoint x="347.57359312880703" y="337.3223304703363" as="targetPoint" />
          </mxGeometry>
        </mxCell>
        <mxCell id="tfue6uO5ZcUPL1V4P8Y0-17" value="" style="endArrow=none;html=1;exitX=1;exitY=1;exitDx=0;exitDy=0;entryX=0;entryY=0;entryDx=0;entryDy=0;" edge="1" parent="1" source="tfue6uO5ZcUPL1V4P8Y0-7" target="tfue6uO5ZcUPL1V4P8Y0-10">
          <mxGeometry width="50" height="50" relative="1" as="geometry">
            <mxPoint x="310" y="290" as="sourcePoint" />
            <mxPoint x="387.57359312880703" y="327.3223304703363" as="targetPoint" />
          </mxGeometry>
        </mxCell>
        <mxCell id="tfue6uO5ZcUPL1V4P8Y0-18" value="" style="endArrow=none;html=1;exitX=0.5;exitY=1;exitDx=0;exitDy=0;entryX=0.5;entryY=0;entryDx=0;entryDy=0;" edge="1" parent="1" source="tfue6uO5ZcUPL1V4P8Y0-7" target="tfue6uO5ZcUPL1V4P8Y0-9">
          <mxGeometry width="50" height="50" relative="1" as="geometry">
            <mxPoint x="200" y="400" as="sourcePoint" />
            <mxPoint x="277.57359312880703" y="437.3223304703363" as="targetPoint" />
          </mxGeometry>
        </mxCell>
        <mxCell id="tfue6uO5ZcUPL1V4P8Y0-19" value="" style="endArrow=none;html=1;exitX=0;exitY=1;exitDx=0;exitDy=0;entryX=0.5;entryY=0;entryDx=0;entryDy=0;" edge="1" parent="1" source="tfue6uO5ZcUPL1V4P8Y0-7" target="tfue6uO5ZcUPL1V4P8Y0-8">
          <mxGeometry width="50" height="50" relative="1" as="geometry">
            <mxPoint x="70" y="490" as="sourcePoint" />
            <mxPoint x="147.57359312880703" y="527.3223304703363" as="targetPoint" />
          </mxGeometry>
        </mxCell>
        <mxCell id="tfue6uO5ZcUPL1V4P8Y0-20" value="Has" style="rhombus;whiteSpace=wrap;html=1;" vertex="1" parent="1">
          <mxGeometry x="400" y="210" width="80" height="80" as="geometry" />
        </mxCell>
        <mxCell id="tfue6uO5ZcUPL1V4P8Y0-21" value="Managers" style="rounded=0;whiteSpace=wrap;html=1;" vertex="1" parent="1">
          <mxGeometry x="660" y="230" width="120" height="40" as="geometry" />
        </mxCell>
        <mxCell id="tfue6uO5ZcUPL1V4P8Y0-22" value="Name" style="ellipse;whiteSpace=wrap;html=1;" vertex="1" parent="1">
          <mxGeometry x="630" y="120" width="100" height="55" as="geometry" />
        </mxCell>
        <mxCell id="tfue6uO5ZcUPL1V4P8Y0-23" value="Address" style="ellipse;whiteSpace=wrap;html=1;" vertex="1" parent="1">
          <mxGeometry x="760" y="150" width="90" height="55" as="geometry" />
        </mxCell>
        <mxCell id="tfue6uO5ZcUPL1V4P8Y0-24" value="Emp ID" style="ellipse;whiteSpace=wrap;html=1;" vertex="1" parent="1">
          <mxGeometry x="830" y="225" width="110" height="55" as="geometry" />
        </mxCell>
        <mxCell id="tfue6uO5ZcUPL1V4P8Y0-26" value="Contact No" style="ellipse;whiteSpace=wrap;html=1;" vertex="1" parent="1">
          <mxGeometry x="790" y="300" width="110" height="55" as="geometry" />
        </mxCell>
        <mxCell id="tfue6uO5ZcUPL1V4P8Y0-27" value="Email ID" style="ellipse;whiteSpace=wrap;html=1;" vertex="1" parent="1">
          <mxGeometry x="690" y="335" width="110" height="55" as="geometry" />
        </mxCell>
        <mxCell id="tfue6uO5ZcUPL1V4P8Y0-28" value="Permanent" style="ellipse;whiteSpace=wrap;html=1;" vertex="1" parent="1">
          <mxGeometry x="805" y="90" width="80" height="40" as="geometry" />
        </mxCell>
        <mxCell id="tfue6uO5ZcUPL1V4P8Y0-29" value="Temporary" style="ellipse;whiteSpace=wrap;html=1;" vertex="1" parent="1">
          <mxGeometry x="885" y="130" width="80" height="40" as="geometry" />
        </mxCell>
        <mxCell id="tfue6uO5ZcUPL1V4P8Y0-30" value="F Name" style="ellipse;whiteSpace=wrap;html=1;" vertex="1" parent="1">
          <mxGeometry x="560" y="80" width="60" height="40" as="geometry" />
        </mxCell>
        <mxCell id="tfue6uO5ZcUPL1V4P8Y0-31" value="M Name" style="ellipse;whiteSpace=wrap;html=1;" vertex="1" parent="1">
          <mxGeometry x="630" y="60" width="65" height="40" as="geometry" />
        </mxCell>
        <mxCell id="tfue6uO5ZcUPL1V4P8Y0-32" value="L Name" style="ellipse;whiteSpace=wrap;html=1;" vertex="1" parent="1">
          <mxGeometry x="715" y="60" width="65" height="40" as="geometry" />
        </mxCell>
        <mxCell id="tfue6uO5ZcUPL1V4P8Y0-33" value="" style="endArrow=none;html=1;entryX=1;entryY=1;entryDx=0;entryDy=0;exitX=0;exitY=0;exitDx=0;exitDy=0;" edge="1" parent="1" source="tfue6uO5ZcUPL1V4P8Y0-22" target="tfue6uO5ZcUPL1V4P8Y0-30">
          <mxGeometry width="50" height="50" relative="1" as="geometry">
            <mxPoint x="490" y="320" as="sourcePoint" />
            <mxPoint x="540" y="270" as="targetPoint" />
          </mxGeometry>
        </mxCell>
        <mxCell id="tfue6uO5ZcUPL1V4P8Y0-34" value="" style="endArrow=none;html=1;entryX=0.5;entryY=1;entryDx=0;entryDy=0;exitX=0.5;exitY=0;exitDx=0;exitDy=0;" edge="1" parent="1" source="tfue6uO5ZcUPL1V4P8Y0-22" target="tfue6uO5ZcUPL1V4P8Y0-31">
          <mxGeometry width="50" height="50" relative="1" as="geometry">
            <mxPoint x="780" y="130" as="sourcePoint" />
            <mxPoint x="746.8914019540234" y="115.90836282368127" as="targetPoint" />
          </mxGeometry>
        </mxCell>
        <mxCell id="tfue6uO5ZcUPL1V4P8Y0-35" value="" style="endArrow=none;html=1;entryX=0.5;entryY=1;entryDx=0;entryDy=0;exitX=1;exitY=0;exitDx=0;exitDy=0;" edge="1" parent="1" source="tfue6uO5ZcUPL1V4P8Y0-22" target="tfue6uO5ZcUPL1V4P8Y0-32">
          <mxGeometry width="50" height="50" relative="1" as="geometry">
            <mxPoint x="760" y="130" as="sourcePoint" />
            <mxPoint x="726.8914019540234" y="115.90836282368127" as="targetPoint" />
          </mxGeometry>
        </mxCell>
        <mxCell id="tfue6uO5ZcUPL1V4P8Y0-37" value="" style="endArrow=none;html=1;entryX=0.5;entryY=1;entryDx=0;entryDy=0;exitX=0.25;exitY=0;exitDx=0;exitDy=0;" edge="1" parent="1" source="tfue6uO5ZcUPL1V4P8Y0-21" target="tfue6uO5ZcUPL1V4P8Y0-22">
          <mxGeometry width="50" height="50" relative="1" as="geometry">
            <mxPoint x="600" y="190" as="sourcePoint" />
            <mxPoint x="566.8914019540234" y="175.90836282368127" as="targetPoint" />
          </mxGeometry>
        </mxCell>
        <mxCell id="tfue6uO5ZcUPL1V4P8Y0-38" value="" style="endArrow=none;html=1;entryX=0.75;entryY=0;entryDx=0;entryDy=0;exitX=0.5;exitY=1;exitDx=0;exitDy=0;" edge="1" parent="1" source="tfue6uO5ZcUPL1V4P8Y0-23" target="tfue6uO5ZcUPL1V4P8Y0-21">
          <mxGeometry width="50" height="50" relative="1" as="geometry">
            <mxPoint x="740" y="200" as="sourcePoint" />
            <mxPoint x="706.8914019540234" y="185.90836282368127" as="targetPoint" />
          </mxGeometry>
        </mxCell>
        <mxCell id="tfue6uO5ZcUPL1V4P8Y0-40" value="" style="endArrow=none;html=1;entryX=0.25;entryY=1;entryDx=0;entryDy=0;exitX=0.5;exitY=0;exitDx=0;exitDy=0;" edge="1" parent="1" source="tfue6uO5ZcUPL1V4P8Y0-27" target="tfue6uO5ZcUPL1V4P8Y0-21">
          <mxGeometry width="50" height="50" relative="1" as="geometry">
            <mxPoint x="760" y="290" as="sourcePoint" />
            <mxPoint x="726.8914019540234" y="275.9083628236813" as="targetPoint" />
          </mxGeometry>
        </mxCell>
        <mxCell id="tfue6uO5ZcUPL1V4P8Y0-41" value="" style="endArrow=none;html=1;entryX=0.75;entryY=1;entryDx=0;entryDy=0;" edge="1" parent="1" source="tfue6uO5ZcUPL1V4P8Y0-26" target="tfue6uO5ZcUPL1V4P8Y0-21">
          <mxGeometry width="50" height="50" relative="1" as="geometry">
            <mxPoint x="770" y="290" as="sourcePoint" />
            <mxPoint x="736.8914019540234" y="275.9083628236813" as="targetPoint" />
          </mxGeometry>
        </mxCell>
        <mxCell id="tfue6uO5ZcUPL1V4P8Y0-42" value="" style="endArrow=none;html=1;exitX=0;exitY=0.5;exitDx=0;exitDy=0;" edge="1" parent="1" source="tfue6uO5ZcUPL1V4P8Y0-24">
          <mxGeometry width="50" height="50" relative="1" as="geometry">
            <mxPoint x="790" y="250" as="sourcePoint" />
            <mxPoint x="780" y="250" as="targetPoint" />
          </mxGeometry>
        </mxCell>
        <mxCell id="tfue6uO5ZcUPL1V4P8Y0-43" value="" style="endArrow=none;html=1;entryX=0.5;entryY=1;entryDx=0;entryDy=0;exitX=0.5;exitY=0;exitDx=0;exitDy=0;" edge="1" parent="1" source="tfue6uO5ZcUPL1V4P8Y0-23" target="tfue6uO5ZcUPL1V4P8Y0-28">
          <mxGeometry width="50" height="50" relative="1" as="geometry">
            <mxPoint x="770" y="130" as="sourcePoint" />
            <mxPoint x="736.8914019540234" y="115.90836282368127" as="targetPoint" />
          </mxGeometry>
        </mxCell>
        <mxCell id="tfue6uO5ZcUPL1V4P8Y0-44" value="" style="endArrow=none;html=1;entryX=1;entryY=0.5;entryDx=0;entryDy=0;exitX=0;exitY=0.5;exitDx=0;exitDy=0;" edge="1" parent="1" source="tfue6uO5ZcUPL1V4P8Y0-29" target="tfue6uO5ZcUPL1V4P8Y0-23">
          <mxGeometry width="50" height="50" relative="1" as="geometry">
            <mxPoint x="960" y="220" as="sourcePoint" />
            <mxPoint x="926.8914019540234" y="205.90836282368127" as="targetPoint" />
          </mxGeometry>
        </mxCell>
        <mxCell id="tfue6uO5ZcUPL1V4P8Y0-45" value="Salary" style="ellipse;whiteSpace=wrap;html=1;" vertex="1" parent="1">
          <mxGeometry x="580" y="330" width="100" height="50" as="geometry" />
        </mxCell>
        <mxCell id="tfue6uO5ZcUPL1V4P8Y0-47" value="" style="endArrow=none;html=1;entryX=0.107;entryY=1.065;entryDx=0;entryDy=0;exitX=0.5;exitY=0;exitDx=0;exitDy=0;entryPerimeter=0;" edge="1" parent="1" source="tfue6uO5ZcUPL1V4P8Y0-45" target="tfue6uO5ZcUPL1V4P8Y0-21">
          <mxGeometry width="50" height="50" relative="1" as="geometry">
            <mxPoint x="640" y="290" as="sourcePoint" />
            <mxPoint x="585" y="225" as="targetPoint" />
          </mxGeometry>
        </mxCell>
        <mxCell id="tfue6uO5ZcUPL1V4P8Y0-48" value="Bank Name" style="ellipse;whiteSpace=wrap;html=1;" vertex="1" parent="1">
          <mxGeometry x="540" y="410" width="80" height="40" as="geometry" />
        </mxCell>
        <mxCell id="tfue6uO5ZcUPL1V4P8Y0-49" value="A/C No" style="ellipse;whiteSpace=wrap;html=1;" vertex="1" parent="1">
          <mxGeometry x="635" y="410" width="80" height="40" as="geometry" />
        </mxCell>
        <mxCell id="tfue6uO5ZcUPL1V4P8Y0-50" value="" style="endArrow=none;html=1;entryX=0;entryY=1;entryDx=0;entryDy=0;exitX=0.5;exitY=0;exitDx=0;exitDy=0;" edge="1" parent="1" source="tfue6uO5ZcUPL1V4P8Y0-48" target="tfue6uO5ZcUPL1V4P8Y0-45">
          <mxGeometry width="50" height="50" relative="1" as="geometry">
            <mxPoint x="560" y="390" as="sourcePoint" />
            <mxPoint x="602.8400000000001" y="332.6" as="targetPoint" />
          </mxGeometry>
        </mxCell>
        <mxCell id="tfue6uO5ZcUPL1V4P8Y0-51" value="" style="endArrow=none;html=1;entryX=0.5;entryY=0;entryDx=0;entryDy=0;exitX=1;exitY=1;exitDx=0;exitDy=0;" edge="1" parent="1" source="tfue6uO5ZcUPL1V4P8Y0-45" target="tfue6uO5ZcUPL1V4P8Y0-49">
          <mxGeometry width="50" height="50" relative="1" as="geometry">
            <mxPoint x="640" y="390" as="sourcePoint" />
            <mxPoint x="682.8400000000001" y="332.6" as="targetPoint" />
          </mxGeometry>
        </mxCell>
        <mxCell id="tfue6uO5ZcUPL1V4P8Y0-52" value="" style="endArrow=none;html=1;entryX=0;entryY=0.5;entryDx=0;entryDy=0;exitX=1;exitY=0.5;exitDx=0;exitDy=0;" edge="1" parent="1" source="tfue6uO5ZcUPL1V4P8Y0-1" target="tfue6uO5ZcUPL1V4P8Y0-20">
          <mxGeometry width="50" height="50" relative="1" as="geometry">
            <mxPoint x="320" y="220" as="sourcePoint" />
            <mxPoint x="362.84000000000015" y="162.60000000000002" as="targetPoint" />
          </mxGeometry>
        </mxCell>
        <mxCell id="tfue6uO5ZcUPL1V4P8Y0-53" value="" style="endArrow=none;html=1;entryX=0;entryY=0.5;entryDx=0;entryDy=0;exitX=1;exitY=0.5;exitDx=0;exitDy=0;" edge="1" parent="1" source="tfue6uO5ZcUPL1V4P8Y0-20" target="tfue6uO5ZcUPL1V4P8Y0-21">
          <mxGeometry width="50" height="50" relative="1" as="geometry">
            <mxPoint x="480" y="330" as="sourcePoint" />
            <mxPoint x="522.8400000000001" y="272.6" as="targetPoint" />
          </mxGeometry>
        </mxCell>
        <mxCell id="tfue6uO5ZcUPL1V4P8Y0-54" value="Shops" style="rounded=0;whiteSpace=wrap;html=1;" vertex="1" parent="1">
          <mxGeometry x="380" y="530" width="120" height="30" as="geometry" />
        </mxCell>
        <mxCell id="tfue6uO5ZcUPL1V4P8Y0-55" value="" style="endArrow=none;html=1;entryX=0.5;entryY=1;entryDx=0;entryDy=0;exitX=0.5;exitY=0;exitDx=0;exitDy=0;" edge="1" parent="1" source="tfue6uO5ZcUPL1V4P8Y0-54" target="tfue6uO5ZcUPL1V4P8Y0-20">
          <mxGeometry width="50" height="50" relative="1" as="geometry">
            <mxPoint x="490" y="350" as="sourcePoint" />
            <mxPoint x="540" y="300" as="targetPoint" />
          </mxGeometry>
        </mxCell>
        <mxCell id="tfue6uO5ZcUPL1V4P8Y0-56" value="Shop type" style="ellipse;whiteSpace=wrap;html=1;" vertex="1" parent="1">
          <mxGeometry x="200" y="560" width="100" height="50" as="geometry" />
        </mxCell>
        <mxCell id="tfue6uO5ZcUPL1V4P8Y0-57" value="Shop No" style="ellipse;whiteSpace=wrap;html=1;" vertex="1" parent="1">
          <mxGeometry x="290" y="605" width="100" height="50" as="geometry" />
        </mxCell>
        <mxCell id="tfue6uO5ZcUPL1V4P8Y0-58" value="Contact No" style="ellipse;whiteSpace=wrap;html=1;" vertex="1" parent="1">
          <mxGeometry x="500" y="600" width="100" height="50" as="geometry" />
        </mxCell>
        <mxCell id="tfue6uO5ZcUPL1V4P8Y0-59" value="Owner" style="ellipse;whiteSpace=wrap;html=1;" vertex="1" parent="1">
          <mxGeometry x="540" y="520" width="100" height="50" as="geometry" />
        </mxCell>
        <mxCell id="tfue6uO5ZcUPL1V4P8Y0-60" value="Shop Name" style="ellipse;whiteSpace=wrap;html=1;" vertex="1" parent="1">
          <mxGeometry x="220" y="480" width="100" height="50" as="geometry" />
        </mxCell>
        <mxCell id="tfue6uO5ZcUPL1V4P8Y0-62" value="Name" style="ellipse;whiteSpace=wrap;html=1;" vertex="1" parent="1">
          <mxGeometry x="660" y="550" width="80" height="40" as="geometry" />
        </mxCell>
        <mxCell id="tfue6uO5ZcUPL1V4P8Y0-63" value="F Name" style="ellipse;whiteSpace=wrap;html=1;" vertex="1" parent="1">
          <mxGeometry x="765" y="570" width="60" height="40" as="geometry" />
        </mxCell>
        <mxCell id="tfue6uO5ZcUPL1V4P8Y0-64" value="M Name" style="ellipse;whiteSpace=wrap;html=1;" vertex="1" parent="1">
          <mxGeometry x="740" y="610" width="65" height="40" as="geometry" />
        </mxCell>
        <mxCell id="tfue6uO5ZcUPL1V4P8Y0-65" value="L Name" style="ellipse;whiteSpace=wrap;html=1;" vertex="1" parent="1">
          <mxGeometry x="665" y="610" width="65" height="40" as="geometry" />
        </mxCell>
        <mxCell id="tfue6uO5ZcUPL1V4P8Y0-67" value="" style="endArrow=none;html=1;entryX=0.5;entryY=0;entryDx=0;entryDy=0;" edge="1" parent="1" source="tfue6uO5ZcUPL1V4P8Y0-54" target="tfue6uO5ZcUPL1V4P8Y0-57">
          <mxGeometry width="50" height="50" relative="1" as="geometry">
            <mxPoint x="410" y="580" as="sourcePoint" />
            <mxPoint x="340" y="620" as="targetPoint" />
          </mxGeometry>
        </mxCell>
        <mxCell id="tfue6uO5ZcUPL1V4P8Y0-68" value="" style="endArrow=none;html=1;exitX=0;exitY=0.5;exitDx=0;exitDy=0;entryX=1;entryY=0;entryDx=0;entryDy=0;" edge="1" parent="1" source="tfue6uO5ZcUPL1V4P8Y0-54" target="tfue6uO5ZcUPL1V4P8Y0-56">
          <mxGeometry width="50" height="50" relative="1" as="geometry">
            <mxPoint x="370" y="560" as="sourcePoint" />
            <mxPoint x="300" y="600" as="targetPoint" />
          </mxGeometry>
        </mxCell>
        <mxCell id="tfue6uO5ZcUPL1V4P8Y0-69" value="" style="endArrow=none;html=1;exitX=0;exitY=0;exitDx=0;exitDy=0;entryX=1;entryY=0.5;entryDx=0;entryDy=0;" edge="1" parent="1" source="tfue6uO5ZcUPL1V4P8Y0-54" target="tfue6uO5ZcUPL1V4P8Y0-60">
          <mxGeometry width="50" height="50" relative="1" as="geometry">
            <mxPoint x="370" y="520" as="sourcePoint" />
            <mxPoint x="300" y="560" as="targetPoint" />
          </mxGeometry>
        </mxCell>
        <mxCell id="tfue6uO5ZcUPL1V4P8Y0-70" value="" style="endArrow=none;html=1;exitX=1;exitY=0.25;exitDx=0;exitDy=0;entryX=0;entryY=0.5;entryDx=0;entryDy=0;" edge="1" parent="1" source="tfue6uO5ZcUPL1V4P8Y0-54" target="tfue6uO5ZcUPL1V4P8Y0-59">
          <mxGeometry width="50" height="50" relative="1" as="geometry">
            <mxPoint x="510" y="550" as="sourcePoint" />
            <mxPoint x="440" y="590" as="targetPoint" />
          </mxGeometry>
        </mxCell>
        <mxCell id="tfue6uO5ZcUPL1V4P8Y0-71" value="" style="endArrow=none;html=1;exitX=0.75;exitY=1;exitDx=0;exitDy=0;entryX=0.5;entryY=0;entryDx=0;entryDy=0;" edge="1" parent="1" source="tfue6uO5ZcUPL1V4P8Y0-54" target="tfue6uO5ZcUPL1V4P8Y0-58">
          <mxGeometry width="50" height="50" relative="1" as="geometry">
            <mxPoint x="480" y="580" as="sourcePoint" />
            <mxPoint x="410" y="620" as="targetPoint" />
          </mxGeometry>
        </mxCell>
        <mxCell id="tfue6uO5ZcUPL1V4P8Y0-72" value="" style="endArrow=none;html=1;exitX=1;exitY=1;exitDx=0;exitDy=0;entryX=0;entryY=0.5;entryDx=0;entryDy=0;" edge="1" parent="1" source="tfue6uO5ZcUPL1V4P8Y0-59" target="tfue6uO5ZcUPL1V4P8Y0-62">
          <mxGeometry width="50" height="50" relative="1" as="geometry">
            <mxPoint x="620" y="590" as="sourcePoint" />
            <mxPoint x="550" y="630" as="targetPoint" />
          </mxGeometry>
        </mxCell>
        <mxCell id="tfue6uO5ZcUPL1V4P8Y0-73" value="" style="endArrow=none;html=1;exitX=0.023;exitY=0.25;exitDx=0;exitDy=0;entryX=1;entryY=0.5;entryDx=0;entryDy=0;exitPerimeter=0;" edge="1" parent="1" source="tfue6uO5ZcUPL1V4P8Y0-63" target="tfue6uO5ZcUPL1V4P8Y0-62">
          <mxGeometry width="50" height="50" relative="1" as="geometry">
            <mxPoint x="740" y="540" as="sourcePoint" />
            <mxPoint x="670" y="580" as="targetPoint" />
          </mxGeometry>
        </mxCell>
        <mxCell id="tfue6uO5ZcUPL1V4P8Y0-74" value="" style="endArrow=none;html=1;exitX=0.5;exitY=1;exitDx=0;exitDy=0;entryX=0.5;entryY=0;entryDx=0;entryDy=0;" edge="1" parent="1" source="tfue6uO5ZcUPL1V4P8Y0-62" target="tfue6uO5ZcUPL1V4P8Y0-65">
          <mxGeometry width="50" height="50" relative="1" as="geometry">
            <mxPoint x="660" y="620" as="sourcePoint" />
            <mxPoint x="590" y="660" as="targetPoint" />
          </mxGeometry>
        </mxCell>
        <mxCell id="tfue6uO5ZcUPL1V4P8Y0-75" value="" style="endArrow=none;html=1;exitX=1;exitY=1;exitDx=0;exitDy=0;entryX=0;entryY=0;entryDx=0;entryDy=0;" edge="1" parent="1" source="tfue6uO5ZcUPL1V4P8Y0-62" target="tfue6uO5ZcUPL1V4P8Y0-64">
          <mxGeometry width="50" height="50" relative="1" as="geometry">
            <mxPoint x="730" y="600" as="sourcePoint" />
            <mxPoint x="660" y="640" as="targetPoint" />
          </mxGeometry>
        </mxCell>
        <mxCell id="tfue6uO5ZcUPL1V4P8Y0-76" value="" style="endArrow=none;html=1;entryX=0.5;entryY=1;entryDx=0;entryDy=0;" edge="1" parent="1" target="tfue6uO5ZcUPL1V4P8Y0-54">
          <mxGeometry width="50" height="50" relative="1" as="geometry">
            <mxPoint x="440" y="720" as="sourcePoint" />
            <mxPoint x="540" y="720" as="targetPoint" />
          </mxGeometry>
        </mxCell>
        <mxCell id="tfue6uO5ZcUPL1V4P8Y0-77" value="Contains" style="rhombus;whiteSpace=wrap;html=1;" vertex="1" parent="1">
          <mxGeometry x="400" y="680" width="80" height="80" as="geometry" />
        </mxCell>
        <mxCell id="tfue6uO5ZcUPL1V4P8Y0-78" value="" style="endArrow=none;html=1;entryX=0.5;entryY=1;entryDx=0;entryDy=0;" edge="1" parent="1" target="tfue6uO5ZcUPL1V4P8Y0-77">
          <mxGeometry width="50" height="50" relative="1" as="geometry">
            <mxPoint x="440" y="820" as="sourcePoint" />
            <mxPoint x="540" y="720" as="targetPoint" />
          </mxGeometry>
        </mxCell>
        <mxCell id="tfue6uO5ZcUPL1V4P8Y0-79" value="Products" style="rounded=0;whiteSpace=wrap;html=1;" vertex="1" parent="1">
          <mxGeometry x="380" y="820" width="120" height="30" as="geometry" />
        </mxCell>
        <mxCell id="tfue6uO5ZcUPL1V4P8Y0-80" value="Name" style="ellipse;whiteSpace=wrap;html=1;" vertex="1" parent="1">
          <mxGeometry x="250" y="790" width="90" height="50" as="geometry" />
        </mxCell>
        <mxCell id="tfue6uO5ZcUPL1V4P8Y0-81" value="P ID" style="ellipse;whiteSpace=wrap;html=1;" vertex="1" parent="1">
          <mxGeometry x="270" y="860" width="90" height="50" as="geometry" />
        </mxCell>
        <mxCell id="tfue6uO5ZcUPL1V4P8Y0-82" value="Bar code" style="ellipse;whiteSpace=wrap;html=1;" vertex="1" parent="1">
          <mxGeometry x="395" y="890" width="90" height="50" as="geometry" />
        </mxCell>
        <mxCell id="tfue6uO5ZcUPL1V4P8Y0-83" value="Type" style="ellipse;whiteSpace=wrap;html=1;" vertex="1" parent="1">
          <mxGeometry x="540" y="780" width="90" height="50" as="geometry" />
        </mxCell>
        <mxCell id="tfue6uO5ZcUPL1V4P8Y0-84" value="Price" style="ellipse;whiteSpace=wrap;html=1;" vertex="1" parent="1">
          <mxGeometry x="530" y="860" width="90" height="50" as="geometry" />
        </mxCell>
        <mxCell id="tfue6uO5ZcUPL1V4P8Y0-85" value="Discount" style="ellipse;whiteSpace=wrap;html=1;" vertex="1" parent="1">
          <mxGeometry x="615" y="920" width="75" height="40" as="geometry" />
        </mxCell>
        <mxCell id="tfue6uO5ZcUPL1V4P8Y0-86" value="" style="endArrow=none;html=1;exitX=0;exitY=0.5;exitDx=0;exitDy=0;" edge="1" parent="1" source="tfue6uO5ZcUPL1V4P8Y0-83">
          <mxGeometry width="50" height="50" relative="1" as="geometry">
            <mxPoint x="490" y="890" as="sourcePoint" />
            <mxPoint x="500" y="828" as="targetPoint" />
          </mxGeometry>
        </mxCell>
        <mxCell id="tfue6uO5ZcUPL1V4P8Y0-87" value="Tax" style="ellipse;whiteSpace=wrap;html=1;" vertex="1" parent="1">
          <mxGeometry x="650" y="860" width="75" height="40" as="geometry" />
        </mxCell>
        <mxCell id="tfue6uO5ZcUPL1V4P8Y0-88" value="" style="endArrow=none;html=1;exitX=0;exitY=0.5;exitDx=0;exitDy=0;entryX=1;entryY=0.5;entryDx=0;entryDy=0;" edge="1" parent="1" source="tfue6uO5ZcUPL1V4P8Y0-79" target="tfue6uO5ZcUPL1V4P8Y0-80">
          <mxGeometry width="50" height="50" relative="1" as="geometry">
            <mxPoint x="360" y="810" as="sourcePoint" />
            <mxPoint x="320" y="833" as="targetPoint" />
          </mxGeometry>
        </mxCell>
        <mxCell id="tfue6uO5ZcUPL1V4P8Y0-89" value="" style="endArrow=none;html=1;exitX=0.25;exitY=1;exitDx=0;exitDy=0;entryX=1;entryY=0;entryDx=0;entryDy=0;" edge="1" parent="1" source="tfue6uO5ZcUPL1V4P8Y0-79" target="tfue6uO5ZcUPL1V4P8Y0-81">
          <mxGeometry width="50" height="50" relative="1" as="geometry">
            <mxPoint x="370" y="860" as="sourcePoint" />
            <mxPoint x="330" y="883" as="targetPoint" />
          </mxGeometry>
        </mxCell>
        <mxCell id="tfue6uO5ZcUPL1V4P8Y0-90" value="" style="endArrow=none;html=1;exitX=0.5;exitY=1;exitDx=0;exitDy=0;entryX=0.5;entryY=0;entryDx=0;entryDy=0;" edge="1" parent="1" source="tfue6uO5ZcUPL1V4P8Y0-79" target="tfue6uO5ZcUPL1V4P8Y0-82">
          <mxGeometry width="50" height="50" relative="1" as="geometry">
            <mxPoint x="440" y="860" as="sourcePoint" />
            <mxPoint x="310" y="993" as="targetPoint" />
          </mxGeometry>
        </mxCell>
        <mxCell id="tfue6uO5ZcUPL1V4P8Y0-91" value="" style="endArrow=none;html=1;exitX=0.75;exitY=1;exitDx=0;exitDy=0;entryX=0;entryY=0;entryDx=0;entryDy=0;" edge="1" parent="1" source="tfue6uO5ZcUPL1V4P8Y0-79" target="tfue6uO5ZcUPL1V4P8Y0-84">
          <mxGeometry width="50" height="50" relative="1" as="geometry">
            <mxPoint x="530" y="850" as="sourcePoint" />
            <mxPoint x="490" y="873" as="targetPoint" />
          </mxGeometry>
        </mxCell>
        <mxCell id="tfue6uO5ZcUPL1V4P8Y0-92" value="" style="endArrow=none;html=1;exitX=1;exitY=1;exitDx=0;exitDy=0;entryX=0.5;entryY=0;entryDx=0;entryDy=0;" edge="1" parent="1" source="tfue6uO5ZcUPL1V4P8Y0-84" target="tfue6uO5ZcUPL1V4P8Y0-85">
          <mxGeometry width="50" height="50" relative="1" as="geometry">
            <mxPoint x="540" y="950" as="sourcePoint" />
            <mxPoint x="500" y="973" as="targetPoint" />
          </mxGeometry>
        </mxCell>
        <mxCell id="tfue6uO5ZcUPL1V4P8Y0-93" value="" style="endArrow=none;html=1;exitX=0.027;exitY=0.367;exitDx=0;exitDy=0;exitPerimeter=0;entryX=1;entryY=0.5;entryDx=0;entryDy=0;" edge="1" parent="1" source="tfue6uO5ZcUPL1V4P8Y0-87" target="tfue6uO5ZcUPL1V4P8Y0-84">
          <mxGeometry width="50" height="50" relative="1" as="geometry">
            <mxPoint x="640" y="870" as="sourcePoint" />
            <mxPoint x="600" y="893" as="targetPoint" />
          </mxGeometry>
        </mxCell>
        <mxCell id="tfue6uO5ZcUPL1V4P8Y0-95" value="" style="endArrow=none;html=1;exitX=1;exitY=0.5;exitDx=0;exitDy=0;" edge="1" parent="1" source="tfue6uO5ZcUPL1V4P8Y0-77" target="tfue6uO5ZcUPL1V4P8Y0-96">
          <mxGeometry width="50" height="50" relative="1" as="geometry">
            <mxPoint x="530" y="790" as="sourcePoint" />
            <mxPoint x="620" y="720" as="targetPoint" />
          </mxGeometry>
        </mxCell>
        <mxCell id="tfue6uO5ZcUPL1V4P8Y0-96" value="Food Court" style="rounded=0;whiteSpace=wrap;html=1;" vertex="1" parent="1">
          <mxGeometry x="785" y="700" width="100" height="40" as="geometry" />
        </mxCell>
        <mxCell id="tfue6uO5ZcUPL1V4P8Y0-97" value="Shop Name" style="ellipse;whiteSpace=wrap;html=1;" vertex="1" parent="1">
          <mxGeometry x="870" y="770" width="100" height="50" as="geometry" />
        </mxCell>
        <mxCell id="tfue6uO5ZcUPL1V4P8Y0-98" value="Shop No" style="ellipse;whiteSpace=wrap;html=1;" vertex="1" parent="1">
          <mxGeometry x="940" y="710" width="100" height="50" as="geometry" />
        </mxCell>
        <mxCell id="tfue6uO5ZcUPL1V4P8Y0-99" value="Shop type" style="ellipse;whiteSpace=wrap;html=1;" vertex="1" parent="1">
          <mxGeometry x="910" y="640" width="100" height="50" as="geometry" />
        </mxCell>
        <mxCell id="tfue6uO5ZcUPL1V4P8Y0-100" value="" style="endArrow=none;html=1;exitX=0.75;exitY=1;exitDx=0;exitDy=0;entryX=0.5;entryY=0;entryDx=0;entryDy=0;" edge="1" parent="1" source="tfue6uO5ZcUPL1V4P8Y0-96" target="tfue6uO5ZcUPL1V4P8Y0-97">
          <mxGeometry width="50" height="50" relative="1" as="geometry">
            <mxPoint x="910" y="750" as="sourcePoint" />
            <mxPoint x="870" y="773" as="targetPoint" />
          </mxGeometry>
        </mxCell>
        <mxCell id="tfue6uO5ZcUPL1V4P8Y0-101" value="" style="endArrow=none;html=1;exitX=0;exitY=0.5;exitDx=0;exitDy=0;entryX=1;entryY=0.5;entryDx=0;entryDy=0;" edge="1" parent="1" source="tfue6uO5ZcUPL1V4P8Y0-98" target="tfue6uO5ZcUPL1V4P8Y0-96">
          <mxGeometry width="50" height="50" relative="1" as="geometry">
            <mxPoint x="910" y="710" as="sourcePoint" />
            <mxPoint x="870" y="733" as="targetPoint" />
          </mxGeometry>
        </mxCell>
        <mxCell id="tfue6uO5ZcUPL1V4P8Y0-102" value="" style="endArrow=none;html=1;exitX=0;exitY=0.5;exitDx=0;exitDy=0;entryX=0.75;entryY=0;entryDx=0;entryDy=0;" edge="1" parent="1" source="tfue6uO5ZcUPL1V4P8Y0-99" target="tfue6uO5ZcUPL1V4P8Y0-96">
          <mxGeometry width="50" height="50" relative="1" as="geometry">
            <mxPoint x="910" y="690" as="sourcePoint" />
            <mxPoint x="870" y="713" as="targetPoint" />
          </mxGeometry>
        </mxCell>
        <mxCell id="tfue6uO5ZcUPL1V4P8Y0-103" value="" style="endArrow=none;html=1;exitX=0.5;exitY=0;exitDx=0;exitDy=0;" edge="1" parent="1" source="tfue6uO5ZcUPL1V4P8Y0-20" target="tfue6uO5ZcUPL1V4P8Y0-104">
          <mxGeometry width="50" height="50" relative="1" as="geometry">
            <mxPoint x="530" y="230" as="sourcePoint" />
            <mxPoint x="440" y="20" as="targetPoint" />
          </mxGeometry>
        </mxCell>
        <mxCell id="tfue6uO5ZcUPL1V4P8Y0-104" value="Movie Theatre" style="rounded=0;whiteSpace=wrap;html=1;" vertex="1" parent="1">
          <mxGeometry x="380" y="-10" width="120" height="40" as="geometry" />
        </mxCell>
        <mxCell id="tfue6uO5ZcUPL1V4P8Y0-105" value="Name" style="ellipse;whiteSpace=wrap;html=1;" vertex="1" parent="1">
          <mxGeometry x="250" y="-30" width="85" height="40" as="geometry" />
        </mxCell>
        <mxCell id="tfue6uO5ZcUPL1V4P8Y0-106" value="Ticket" style="ellipse;whiteSpace=wrap;html=1;" vertex="1" parent="1">
          <mxGeometry x="360" y="-80" width="85" height="40" as="geometry" />
        </mxCell>
        <mxCell id="tfue6uO5ZcUPL1V4P8Y0-107" value="Staff" style="ellipse;whiteSpace=wrap;html=1;" vertex="1" parent="1">
          <mxGeometry x="470" y="-80" width="85" height="40" as="geometry" />
        </mxCell>
        <mxCell id="tfue6uO5ZcUPL1V4P8Y0-108" value="Name" style="ellipse;whiteSpace=wrap;html=1;" vertex="1" parent="1">
          <mxGeometry x="535" y="-150" width="85" height="40" as="geometry" />
        </mxCell>
        <mxCell id="tfue6uO5ZcUPL1V4P8Y0-109" value="Price" style="ellipse;whiteSpace=wrap;html=1;" vertex="1" parent="1">
          <mxGeometry x="383" y="-150" width="85" height="40" as="geometry" />
        </mxCell>
        <mxCell id="tfue6uO5ZcUPL1V4P8Y0-110" value="T No" style="ellipse;whiteSpace=wrap;html=1;" vertex="1" parent="1">
          <mxGeometry x="280" y="-140" width="85" height="40" as="geometry" />
        </mxCell>
        <mxCell id="tfue6uO5ZcUPL1V4P8Y0-111" value="Staff ID" style="ellipse;whiteSpace=wrap;html=1;" vertex="1" parent="1">
          <mxGeometry x="600" y="-90" width="85" height="40" as="geometry" />
        </mxCell>
        <mxCell id="tfue6uO5ZcUPL1V4P8Y0-112" value="" style="endArrow=none;html=1;entryX=0.5;entryY=1;entryDx=0;entryDy=0;" edge="1" parent="1" source="tfue6uO5ZcUPL1V4P8Y0-106" target="tfue6uO5ZcUPL1V4P8Y0-110">
          <mxGeometry width="50" height="50" relative="1" as="geometry">
            <mxPoint x="310" y="40" as="sourcePoint" />
            <mxPoint x="290" y="-20" as="targetPoint" />
          </mxGeometry>
        </mxCell>
        <mxCell id="tfue6uO5ZcUPL1V4P8Y0-113" value="" style="endArrow=none;html=1;entryX=0.5;entryY=1;entryDx=0;entryDy=0;exitX=1;exitY=0;exitDx=0;exitDy=0;" edge="1" parent="1" source="tfue6uO5ZcUPL1V4P8Y0-106" target="tfue6uO5ZcUPL1V4P8Y0-109">
          <mxGeometry width="50" height="50" relative="1" as="geometry">
            <mxPoint x="430" y="-100" as="sourcePoint" />
            <mxPoint x="379.1279997077122" y="-125.4360001461439" as="targetPoint" />
          </mxGeometry>
        </mxCell>
        <mxCell id="tfue6uO5ZcUPL1V4P8Y0-114" value="" style="endArrow=none;html=1;entryX=0.5;entryY=1;entryDx=0;entryDy=0;exitX=0.75;exitY=0;exitDx=0;exitDy=0;" edge="1" parent="1" source="tfue6uO5ZcUPL1V4P8Y0-104" target="tfue6uO5ZcUPL1V4P8Y0-107">
          <mxGeometry width="50" height="50" relative="1" as="geometry">
            <mxPoint x="560" y="-30" as="sourcePoint" />
            <mxPoint x="509.1279997077122" y="-55.4360001461439" as="targetPoint" />
          </mxGeometry>
        </mxCell>
        <mxCell id="tfue6uO5ZcUPL1V4P8Y0-115" value="" style="endArrow=none;html=1;entryX=1;entryY=0.5;entryDx=0;entryDy=0;exitX=0;exitY=0.5;exitDx=0;exitDy=0;" edge="1" parent="1" source="tfue6uO5ZcUPL1V4P8Y0-111" target="tfue6uO5ZcUPL1V4P8Y0-107">
          <mxGeometry width="50" height="50" relative="1" as="geometry">
            <mxPoint x="580" y="-30" as="sourcePoint" />
            <mxPoint x="529.1279997077122" y="-55.4360001461439" as="targetPoint" />
          </mxGeometry>
        </mxCell>
        <mxCell id="tfue6uO5ZcUPL1V4P8Y0-116" value="" style="endArrow=none;html=1;entryX=0;entryY=1;entryDx=0;entryDy=0;exitX=0.5;exitY=0;exitDx=0;exitDy=0;" edge="1" parent="1" source="tfue6uO5ZcUPL1V4P8Y0-107" target="tfue6uO5ZcUPL1V4P8Y0-108">
          <mxGeometry width="50" height="50" relative="1" as="geometry">
            <mxPoint x="490" y="-100" as="sourcePoint" />
            <mxPoint x="439.1279997077122" y="-125.4360001461439" as="targetPoint" />
          </mxGeometry>
        </mxCell>
        <mxCell id="tfue6uO5ZcUPL1V4P8Y0-117" value="" style="endArrow=none;html=1;entryX=1;entryY=1;entryDx=0;entryDy=0;exitX=0;exitY=0.5;exitDx=0;exitDy=0;" edge="1" parent="1" source="tfue6uO5ZcUPL1V4P8Y0-104" target="tfue6uO5ZcUPL1V4P8Y0-105">
          <mxGeometry width="50" height="50" relative="1" as="geometry">
            <mxPoint x="330" y="60" as="sourcePoint" />
            <mxPoint x="279.1279997077122" y="34.5639998538561" as="targetPoint" />
          </mxGeometry>
        </mxCell>
        <mxCell id="tfue6uO5ZcUPL1V4P8Y0-118" value="" style="endArrow=none;html=1;entryX=0.5;entryY=1;entryDx=0;entryDy=0;exitX=0.5;exitY=0;exitDx=0;exitDy=0;" edge="1" parent="1" source="tfue6uO5ZcUPL1V4P8Y0-104" target="tfue6uO5ZcUPL1V4P8Y0-106">
          <mxGeometry width="50" height="50" relative="1" as="geometry">
            <mxPoint x="370" y="70" as="sourcePoint" />
            <mxPoint x="319.1279997077122" y="44.5639998538561" as="targetPoint" />
          </mxGeometry>
        </mxCell>
        <mxCell id="tfue6uO5ZcUPL1V4P8Y0-120" value="Staff" style="ellipse;whiteSpace=wrap;html=1;" vertex="1" parent="1">
          <mxGeometry x="260" y="125" width="100" height="45" as="geometry" />
        </mxCell>
        <mxCell id="tfue6uO5ZcUPL1V4P8Y0-121" value="Name" style="ellipse;whiteSpace=wrap;html=1;" vertex="1" parent="1">
          <mxGeometry x="220" y="60" width="85" height="40" as="geometry" />
        </mxCell>
        <mxCell id="tfue6uO5ZcUPL1V4P8Y0-122" value="Staff ID" style="ellipse;whiteSpace=wrap;html=1;" vertex="1" parent="1">
          <mxGeometry x="320" y="60" width="85" height="45" as="geometry" />
        </mxCell>
        <mxCell id="tfue6uO5ZcUPL1V4P8Y0-123" value="" style="endArrow=none;html=1;exitX=0.75;exitY=0;exitDx=0;exitDy=0;" edge="1" parent="1" source="tfue6uO5ZcUPL1V4P8Y0-1" target="tfue6uO5ZcUPL1V4P8Y0-120">
          <mxGeometry width="50" height="50" relative="1" as="geometry">
            <mxPoint x="170" y="80" as="sourcePoint" />
            <mxPoint x="220" y="30" as="targetPoint" />
          </mxGeometry>
        </mxCell>
        <mxCell id="tfue6uO5ZcUPL1V4P8Y0-125" value="" style="endArrow=none;html=1;entryX=0.5;entryY=1;entryDx=0;entryDy=0;exitX=0.5;exitY=0;exitDx=0;exitDy=0;" edge="1" parent="1" source="tfue6uO5ZcUPL1V4P8Y0-120" target="tfue6uO5ZcUPL1V4P8Y0-121">
          <mxGeometry width="50" height="50" relative="1" as="geometry">
            <mxPoint x="170" y="80" as="sourcePoint" />
            <mxPoint x="220" y="30" as="targetPoint" />
          </mxGeometry>
        </mxCell>
        <mxCell id="tfue6uO5ZcUPL1V4P8Y0-127" value="" style="endArrow=none;html=1;exitX=1;exitY=0;exitDx=0;exitDy=0;entryX=0;entryY=1;entryDx=0;entryDy=0;" edge="1" parent="1" source="tfue6uO5ZcUPL1V4P8Y0-120" target="tfue6uO5ZcUPL1V4P8Y0-122">
          <mxGeometry width="50" height="50" relative="1" as="geometry">
            <mxPoint x="360" y="220" as="sourcePoint" />
            <mxPoint x="401.1763494541401" y="195.70182664138952" as="targetPoint" />
          </mxGeometry>
        </mxCell>
        <mxCell id="tfue6uO5ZcUPL1V4P8Y0-128" value="Customer" style="ellipse;whiteSpace=wrap;html=1;" vertex="1" parent="1">
          <mxGeometry x="283" y="320" width="100" height="45" as="geometry" />
        </mxCell>
        <mxCell id="tfue6uO5ZcUPL1V4P8Y0-129" value="" style="endArrow=none;html=1;entryX=1;entryY=0.75;entryDx=0;entryDy=0;exitX=0.5;exitY=0;exitDx=0;exitDy=0;" edge="1" parent="1" source="tfue6uO5ZcUPL1V4P8Y0-128" target="tfue6uO5ZcUPL1V4P8Y0-1">
          <mxGeometry width="50" height="50" relative="1" as="geometry">
            <mxPoint x="170" y="310" as="sourcePoint" />
            <mxPoint x="220" y="260" as="targetPoint" />
          </mxGeometry>
        </mxCell>
      </root>
    </mxGraphModel>
  </diagram>
</mxfile>
